# xmcd CD database file
#
# Track frame offsets:
#	150
#	27799
#	61184
#	120754
#	142000
#	169562
#	177470
#	221558
#	267376
#	303447
#	322317
#	340250
#	366033
#
# Disc length: 5213 seconds
#
# Revision: 0
# Processed by: cddbd v1.5.2PL0 Copyright (c) Steve Scherf et al.
# Submitted via: CDex 1.51
#
DISCID=c2145b0d
DTITLE=Robben Ford - Live At Fillmore
DYEAR=1997
DGENRE=Blues
TTITLE0=Just As It Is
TTITLE1=Chevrolet
TTITLE2=You Cut Me To The Bone
TTITLE3=Oasis
TTITLE4=The Miller's Son
TTITLE5=Don't Let Me Be
TTITLE6=Ghosts
TTITLE7=Freedom
TTITLE8=Lovin Cup
TTITLE9=In The Beginning
TTITLE10=Prison Of Love
TTITLE11=Start It Up
TTITLE12=Take Out Some In
EXTD=YEAR: 1997
EXTT0=
EXTT1=
EXTT2=
EXTT3=
EXTT4=
EXTT5=
EXTT6=
EXTT7=
EXTT8=
EXTT9=
EXTT10=
EXTT11=
EXTT12=
PLAYORDER=
